PathFileType	4	(X/Y/Z)	2_1_2_p0_0-448_filt_butterworth.trc
DataRate	CameraRate	NumFrames	NumMarkers	Units	OrigDataRate	OrigDataStartFrame	OrigNumFrames
60.0	60.0	7	27	m	60.0	280	448
Frame#	Time	RHip			RKnee			RAnkle			RBigToe			RSmallToe			RHeel			LHip			LKnee			LAnkle			LBigToe			LSmallToe			LHeel			Neck			Head			Nose			RShoulder			RElbow			RWrist			RThumb			RIndex			RPinky			LShoulder			LElbow			LWrist			LThumb			LIndex			LPinky			
		X1	Y1	Z1	X2	Y2	Z2	X3	Y3	Z3	X4	Y4	Z4	X5	Y5	Z5	X6	Y6	Z6	X7	Y7	Z7	X8	Y8	Z8	X9	Y9	Z9	X10	Y10	Z10	X11	Y11	Z11	X12	Y12	Z12	X13	Y13	Z13	X14	Y14	Z14	X15	Y15	Z15	X16	Y16	Z16	X17	Y17	Z17	X18	Y18	Z18	X19	Y19	Z19	X20	Y20	Z20	X21	Y21	Z21	X22	Y22	Z22	X23	Y23	Z23	X24	Y24	Z24	X25	Y25	Z25	X26	Y26	Z26	X27	Y27	Z27	
280	4.666666666666667	0.24724110830354687	0.6628434162266674	0.7845453777274358	0.2630013679494032	0.24002226597107404	0.7667984356268628	0.2837665834131802	-0.2215182964961029	0.8699639179817169	0.2952792388652253	-0.21063964542645092	0.6342535759105221	0.34686951527282184	-0.23806764693077526	0.695152368359269	0.28107588579104736	-0.271421320393277	0.8926740058644262	0.06671585864525979	0.658370533264735	0.8109755617569389	0.07854460136263132	0.22556421267831234	0.7919204863236754	0.10430888566808236	-0.18064468827747293	0.8009632899575697	0.12352064045256564	-0.26481836736416287	0.6778708725722724	0.07491614381459338	-0.21716645489412523	0.6648595919616258	0.13614455851873664	-0.25628394702773954	0.8628229598051963	0.2561742046091245	1.2208166920976427	0.7694594045756964	0.32226898286793815	1.480960090027569	0.6636653555810311	0.30099471712773307	1.2944338272997784	0.6304443585722583	0.4053349516470305	1.1600904946303454	0.8235088518844955	0.41240836422836424	0.8682273741377431	0.7868376916287649	0.4009523809183364	0.9380490699241923	0.5604902931915203	0.3714588901527009	1.011024729229489	0.45930760306187735	0.39269049784107346	1.0059745307631112	0.4218246220863414	0.37416264343308914	0.9640481317708033	0.43898001794777325	0.08176550027992309	1.2407057115431073	0.7928860449866408	0.024195979788341586	1.0688420455377965	0.5802838182250118	0.21238713438962264	1.1040248790688652	0.4069929005185578	0.30521167559572115	1.103886594560161	0.3541811546798597	0.3072956982181669	1.081251658414351	0.3497094865396862	0.2680261535100688	1.0296187409230677	0.40133146837613337	
281	4.683333333333334	0.2470281926020201	0.6622187845897248	0.7855503841669154	0.26305998522496066	0.24032466694929105	0.7669881481717412	0.2837937805353609	-0.22167661288235035	0.8698795247711044	0.29418359041039727	-0.2124985122334513	0.6367718411845462	0.34670678841078784	-0.23783909951519444	0.6948151207752677	0.2811894717815452	-0.2721575246180561	0.8924933349889996	0.06722164098321252	0.6592986688577691	0.8103995475208317	0.07866024921356313	0.22533660711109763	0.7923339176608749	0.10428574584348578	-0.18072890428226399	0.8009672121999409	0.12222665275774103	-0.26670608713332544	0.6802998632732979	0.07479208859198874	-0.21579025535040486	0.6637144147662208	0.13601963451264842	-0.25595404120103854	0.8616646780660248	0.25629732529736804	1.2210043138832545	0.7691135711288648	0.3222449814169135	1.4810826270534025	0.6637004342249133	0.30102997876911436	1.294342473298091	0.6304384811128961	0.4060848382724635	1.1601810558583188	0.8213353280391095	0.4124312750406012	0.8686027968002669	0.7881058738020994	0.3947656705916377	0.9369397991713799	0.5576287240473918	0.3677728007957891	1.010264115999184	0.4523871414918242	0.38735244173742966	1.0053370287548835	0.420553984506421	0.3600504235191785	0.9600346626828938	0.4495783856099948	0.08189737269010938	1.2400054175045236	0.7927066276592334	0.02584781549843118	1.063941495587182	0.5800322409493043	0.2161994984799927	1.0939336805623299	0.41253836083501855	0.31105263609290096	1.0961547331192962	0.3472793611916648	0.309092227373876	1.0684207005831021	0.35355816356381053	0.2679689605870157	1.0196638424156141	0.410927762263114	
282	4.7	0.24672598712274155	0.6614172870724352	0.7868662911168836	0.26310085965894436	0.24060692187398203	0.7671856652366812	0.28383038390705073	-0.2218817397460069	0.8697684817895361	0.2937283705766121	-0.2132223874196341	0.6377689426332858	0.3466695044945921	-0.23760789722598577	0.6944743328046176	0.2812781275738149	-0.2726609999978146	0.8920425918316381	0.06775310444392263	0.6602124207984046	0.8099696111955785	0.07877303286643074	0.22512824085920866	0.7927358409508382	0.10427446410447241	-0.18075803646044053	0.8009709223891701	0.12095256980262113	-0.26781734534978097	0.68165544156108	0.07470700758915337	-0.21474538338446347	0.6634135146519866	0.13588743782309412	-0.255629150322635	0.860496370423268	0.256167322341871	1.2215065047471623	0.769178033794581	0.32230643603124925	1.4812142603446738	0.6637514164866192	0.3010693665518364	1.2942579358552173	0.6303459332933843	0.40655923536674343	1.1598784889816398	0.8199635224885404	0.41247128922451354	0.8705978582209166	0.788277239566082	0.38827894592199186	0.9373430950680779	0.5568068545274563	0.3645262788889974	1.0110111337089442	0.44480051093616485	0.38187004916199885	1.0049797391318438	0.4196348994006107	0.345614247561734	0.9563758918856334	0.4604169239972178	0.08238068543056035	1.239700553274284	0.7917275983817036	0.02685262711651615	1.0598790648736647	0.579768488845934	0.21956664711877544	1.0842228359546051	0.41972075774359985	0.3143392525144711	1.0856168426967747	0.34798988576385814	0.3104696810513215	1.0555473208330142	0.3608188520145987	0.26891534848670473	1.0103740218272796	0.42045215973589917	
283	4.716666666666667	0.2464749181136086	0.6605804630287417	0.7881896452922457	0.26309570154673434	0.24082707673453652	0.767453514043195	0.2838750993339908	-0.22211598811347355	0.8696367078265353	0.2940558939201662	-0.2125663701531394	0.6369140259276752	0.3466692626256207	-0.23748619653396585	0.6942980463120901	0.28132940250032645	-0.2728924560118559	0.8913256998512034	0.06826551991289839	0.6611179731533596	0.8097078258443925	0.07888198480921278	0.22494957420549436	0.7931045336983821	0.10427042147554386	-0.1807562043150317	0.8009716149608177	0.11983361808611931	-0.2678926592988448	0.6815950674619299	0.0746138821105925	-0.2140537987216047	0.6636302457385836	0.1357405547018218	-0.25528225154239087	0.8592654757094161	0.25598653272856015	1.2222727589644657	0.7692791934103969	0.3224290321447465	1.48133431761839	0.6637981176991103	0.3010927900098798	1.2943419432774108	0.6301802053040856	0.4067361245245931	1.1592467705826761	0.8194480407346809	0.4124830922937781	0.8738946187952137	0.7868098069216511	0.3819075459313028	0.9391983164845568	0.5572797763115682	0.3616613382832208	1.0131763334027368	0.43687091208420437	0.37549248718468786	1.004834865613254	0.4190582601587642	0.3317067031076655	0.9533044542898245	0.4707401518912023	0.08320797331064667	1.2398246544986504	0.7899789994440607	0.027217999169917018	1.0565303138224347	0.5795759886630514	0.22236702498462435	1.075575474135068	0.4275355412515941	0.31490706386647066	1.0727434561522762	0.3572130355757602	0.3115970028605064	1.0436212888525176	0.3712654951338065	0.27086768065644173	1.0020704547630253	0.42862527826785135	
284	4.733333333333333	0.24636540439337765	0.6597758961695163	0.789316276029685	0.26301217018362166	0.24093691185497063	0.767859975441723	0.28392648441212265	-0.22237021981443328	0.8694880863708497	0.2949850329298703	-0.21086499868329578	0.6346520413069767	0.3466603541890658	-0.23745231002585906	0.6942452218960304	0.28133369388907536	-0.27285706461778725	0.8903376327797274	0.06872603543584034	0.6619783568506113	0.8096374774550656	0.07898382997993061	0.22481463537843688	0.793411597551522	0.10426860083905397	-0.18074740634966802	0.8009681897730592	0.11900973213528798	-0.26692690370621824	0.6801312727819451	0.07454627145230631	-0.21369842802992728	0.66396731055779	0.1355838128551905	-0.254864699050738	0.8579243517411264	0.2558630544298582	1.2232545806096302	0.769268694693032	0.3225720282342625	1.481432808067205	0.6638235636840907	0.3010838154190345	1.294767755424786	0.6300062728889295	0.40671155050457386	1.1584543792857842	0.8194871769261802	0.4124887728974172	0.877857545114481	0.783796881527893	0.37595405625538547	0.9421585066950948	0.5585271296629282	0.3591354946262146	1.0163804834166519	0.42892252762663746	0.3677999285253609	1.0050424423551505	0.4185626779510565	0.31915499450289053	0.9509173555809355	0.47980177072774766	0.08426738462922723	1.240250114517634	0.7877314991559183	0.0271646986265221	1.0537142814813523	0.5797336515207767	0.22452452645285953	1.0686760767016577	0.43457600924825596	0.3138188485261585	1.0588055291601393	0.37321457553933607	0.3128682672863751	1.03359067174082	0.3838619217630832	0.2733830497421707	0.9953202049174418	0.43444311450904155	
285	4.75	0.24638393356759405	0.6590045943871822	0.7902119407908367	0.26285622191562014	0.24094202911217213	0.7683773936410705	0.2839751845000317	-0.22263924838516197	0.8693261508056034	0.2961879148143881	-0.2087094738677991	0.631775730016767	0.3466488816130078	-0.23745775824920584	0.6942358655163426	0.28129105570192003	-0.27259193496935097	0.8890954410751047	0.0691038380603332	0.6627316309270335	0.8097835599608976	0.07906779067170837	0.2247364348960398	0.7936460417092808	0.10426591150679348	-0.1807374856267569	0.8009679857591249	0.11852495083823669	-0.2651780187439528	0.6776207719463416	0.07461691814542389	-0.21367361847397004	0.6642904953125592	0.13545576215865562	-0.25436574235058523	0.8565434993309342	0.25579313062913234	1.2243737555134657	0.7692267495384102	0.3227110564882998	1.4815110099942501	0.6638319611813771	0.3010368758390081	1.2955934215375213	0.6298835118984678	0.40663263971381336	1.1577080675800697	0.8196353566212353	0.4125045031788289	0.8816283045345369	0.7798982050826322	0.3705155606195085	0.9456650298199432	0.5605031787091593	0.3568206834694909	1.0199214650403685	0.42160037018209107	0.35891394436893487	1.0057441167521584	0.41778131093138	0.3085694523458307	0.9490655512435053	0.4876285476222477	0.0854121283188157	1.240790248271736	0.78533671446533	0.026999159019595084	1.051334763978423	0.5806460473826587	0.22619333651097667	1.063817305126985	0.4399564908450543	0.3128408805295855	1.0452552692825128	0.39251831687806854	0.31463344025657247	1.0258540810372645	0.3968552160983235	0.2760960840944712	0.9905010474728022	0.4375749863828185	
286	4.766666666666667	0.2464438491275461	0.6582638385948193	0.790906738354989	0.26269022738543824	0.24091642449413736	0.7688503193831719	0.2839972553365282	-0.22291804151354935	0.8691519188816718	0.29740464522839394	-0.20655653110893668	0.6289028620499626	0.3466498635471009	-0.2374760639466396	0.6942278526746789	0.28121229395753733	-0.2721684711175513	0.887672596603173	0.06938345750716575	0.6633354180051758	0.810140469987972	0.07911622182048726	0.2247449173748902	0.7938176527484195	0.10425901172919214	-0.18071532728212875	0.8009902881508149	0.11825655787169656	-0.2631740293459697	0.6747647140157873	0.07490463521432819	-0.21391886867047372	0.6646988262184168	0.13541127537987974	-0.25386555212874445	0.8553263117979736	0.25574198635042833	1.2255061517681358	0.7692617703161652	0.32283180144127743	1.4815797381209102	0.6638301483311988	0.3009588826889665	1.2967366873630026	0.6298368053929706	0.40658269988389606	1.1571639793704538	0.8196561757614016	0.41250157803477294	0.8844542328840652	0.7758696650084077	0.3656499397598893	0.9491866028523261	0.563275699815743	0.35432229734969517	1.0229256978799501	0.41595929908757545	0.34942965484954336	1.0069124877227917	0.4165765762580208	0.3002775665561068	0.9476018949784191	0.49450662859570516	0.08648670551476868	1.241312223648953	0.7831389266851998	0.02692741750844658	1.0494615044448015	0.5823517354824183	0.22762884786873802	1.0607195031495291	0.44366884921878263	0.31304231623488626	1.0334619612503735	0.4113545845106451	0.31689098080344685	1.020286333724894	0.4084434504086197	0.2789128524304456	0.9875751284228518	0.4385623101054984	
